<?xml version="1.0" encoding="UTF-8"?> <svg xmlns="http://www.w3.org/2000/svg" width="43" height="43" viewBox="0 0 43 43" fill="none"><path d="M17.76 23.44C19.28 24.03 21.06 21.43 21.87 19.28C21.87 19.28 19.57 20.95 18.56 21.73C17.52 22.53 16.77 23.05 17.76 23.44Z" fill="white"></path><path d="M25.05 31.0099C24.94 30.8999 24.82 30.8099 24.67 30.7499C24.53 30.6899 24.37 30.6599 24.2 30.6599C24.03 30.6599 23.87 30.6899 23.73 30.7499C23.59 30.8099 23.46 30.8999 23.35 31.0099C23.24 31.1199 23.16 31.2499 23.1 31.3999C23.04 31.5499 23.01 31.7199 23.01 31.8999C23.01 32.0799 23.04 32.2499 23.1 32.3999C23.16 32.5499 23.24 32.6799 23.35 32.7899C23.46 32.8999 23.58 32.9899 23.73 33.0499C23.87 33.1099 24.03 33.1399 24.2 33.1399C24.37 33.1399 24.53 33.1099 24.67 33.0499C24.81 32.9899 24.94 32.8999 25.05 32.7899C25.16 32.6799 25.24 32.5499 25.3 32.3999C25.36 32.2499 25.39 32.0799 25.39 31.8999C25.39 31.7199 25.36 31.5499 25.3 31.3999C25.24 31.2499 25.16 31.1199 25.05 31.0099Z" fill="white"></path><path d="M12.12 31.8701C12.08 31.7601 12.05 31.6601 12.01 31.5601C11.99 31.5001 11.97 31.4401 11.96 31.3701C11.94 31.4301 11.92 31.5001 11.9 31.5601C11.87 31.6601 11.83 31.7601 11.79 31.8701C11.75 31.9801 11.7 32.1101 11.64 32.2701L11.49 32.6801H12.41L12.26 32.2701C12.2 32.1201 12.16 31.9801 12.12 31.8701Z" fill="white"></path><path d="M38.69 0H4.31C1.93 0 0 1.94 0 4.31V38.68C0 41.06 1.94 42.99 4.31 42.99H38.68C41.06 42.99 42.99 41.05 42.99 38.68V4.31C42.99 1.93 41.05 0 38.68 0H38.69ZM13.1 34.56L12.81 33.78H11.08L10.79 34.56H9.21L11.32 29.3H12.6L14.7 34.56H13.09H13.1ZM20.28 34.56H18.82L16.86 31.85C16.86 31.85 16.86 31.9 16.86 31.92C16.87 32.04 16.88 32.15 16.89 32.26C16.89 32.37 16.9 32.5 16.91 32.64C16.91 32.78 16.91 32.94 16.91 33.12V34.55H15.35V29.29H16.8L18.82 32.08C18.82 32.08 18.82 32.03 18.82 32C18.8 31.85 18.79 31.71 18.77 31.58C18.76 31.45 18.75 31.33 18.74 31.2C18.74 31.07 18.73 30.94 18.73 30.79V29.29H20.29V34.55L20.28 34.56ZM26.83 32.99C26.69 33.33 26.5 33.62 26.24 33.86C25.99 34.11 25.69 34.3 25.34 34.43C24.99 34.56 24.62 34.63 24.21 34.63C23.8 34.63 23.41 34.56 23.07 34.43C22.72 34.29 22.42 34.1 22.17 33.86C21.91 33.61 21.72 33.32 21.58 32.99C21.44 32.65 21.37 32.29 21.37 31.89C21.37 31.49 21.44 31.12 21.58 30.79C21.72 30.46 21.91 30.17 22.17 29.92C22.43 29.68 22.73 29.48 23.07 29.35C23.42 29.21 23.79 29.15 24.2 29.15C24.61 29.15 24.99 29.22 25.34 29.35C25.68 29.49 25.98 29.68 26.24 29.92C26.5 30.17 26.69 30.45 26.83 30.79C26.97 31.12 27.04 31.49 27.04 31.88C27.04 32.27 26.97 32.65 26.83 32.98V32.99ZM31.83 33.85C31.64 34.11 31.38 34.31 31.05 34.44C30.72 34.57 30.36 34.64 29.96 34.64C29.56 34.64 29.22 34.6 28.91 34.51C28.61 34.42 28.34 34.3 28.11 34.14C27.88 33.98 27.68 33.79 27.5 33.58L28.44 32.53C28.69 32.85 28.95 33.06 29.22 33.16C29.49 33.26 29.75 33.31 29.99 33.31C30.09 33.31 30.17 33.31 30.25 33.28C30.32 33.26 30.38 33.23 30.42 33.19C30.46 33.15 30.48 33.09 30.48 33.02C30.48 32.95 30.46 32.9 30.42 32.85C30.38 32.8 30.32 32.77 30.25 32.73C30.18 32.7 30.1 32.67 30.02 32.65C29.94 32.63 29.86 32.61 29.78 32.59C29.7 32.57 29.63 32.56 29.57 32.54C29.27 32.47 29.01 32.38 28.78 32.28C28.56 32.18 28.37 32.06 28.22 31.92C28.07 31.78 27.96 31.62 27.89 31.44C27.82 31.26 27.78 31.06 27.78 30.83C27.78 30.57 27.84 30.34 27.96 30.13C28.08 29.92 28.24 29.74 28.43 29.59C28.63 29.44 28.85 29.32 29.11 29.24C29.36 29.16 29.62 29.12 29.9 29.12C30.29 29.12 30.63 29.16 30.89 29.23C31.16 29.3 31.38 29.41 31.56 29.54C31.74 29.68 31.9 29.83 32.03 30.01L31.08 30.92C30.97 30.82 30.85 30.73 30.73 30.66C30.61 30.59 30.49 30.54 30.36 30.51C30.23 30.48 30.11 30.46 29.98 30.46C29.86 30.46 29.77 30.46 29.69 30.49C29.61 30.51 29.55 30.54 29.5 30.57C29.45 30.61 29.43 30.66 29.43 30.72C29.43 30.78 29.46 30.84 29.52 30.88C29.58 30.92 29.65 30.96 29.74 30.99C29.83 31.02 29.92 31.04 30 31.06C30.09 31.08 30.16 31.09 30.22 31.1C30.5 31.15 30.75 31.22 30.98 31.31C31.21 31.4 31.41 31.51 31.58 31.64C31.75 31.77 31.89 31.94 31.98 32.14C32.07 32.34 32.12 32.57 32.12 32.84C32.12 33.23 32.02 33.55 31.83 33.81V33.85ZM24.47 24.26C23.74 24.07 26.18 21.34 27.19 21.6C30.68 22.5 33.3 20.88 33.24 17.17C33.22 15.8 32.88 13.31 31.57 12.59C30 11.73 27.6 13.82 25.43 16.06C24.49 18.86 22.33 21.69 20.53 23.19C19.56 24 17.94 25.13 16.58 24.98C14.94 24.8 15.13 23.68 15.95 22.57C16.99 21.15 18.61 20.34 20.06 19.41C20.86 18.9 21.57 18.3 22.24 17.67C22.96 15.77 23.31 13.46 21.52 12.43C19.65 11.35 15.83 15.21 14.56 16.7C13.35 19.07 12.09 21.41 10.79 23.72C10.37 24.47 7.15 26.46 8.08 24.8C9.36 22.53 10.6 20.24 11.78 17.92C11.78 17.9 11.8 17.87 11.82 17.85C12.19 17.12 12.56 16.39 12.92 15.65C13.3 14.88 14.89 12.21 14.5 11.75C13.93 11.06 10.58 13.82 10.04 14.32C8.91 15.39 6.5 15.9 8.47 14.05C11.19 11.49 14.2 9.67 17.81 8.65C18.17 8.55 18.36 8.81 18.21 9.14C17.54 10.62 16.84 12.09 16.13 13.55C17.18 12.72 18.27 11.93 19.32 11.16C21.81 9.36 24.58 8.02 25.72 12.04C25.9 12.68 25.94 13.37 25.87 14.09C26.06 13.92 26.25 13.74 26.45 13.57C28.4 11.93 33.08 7.46 35.31 10.85C39.77 17.61 31.32 26.01 24.48 24.25L24.47 24.26Z" fill="white"></path></svg> 